# xmcd
#
# Track frame offsets:
#	150
#	10553
#	23593
#	35130
#	48750
#	62189
#	76491
#	85864
#	96087
#	111872
#	124449
#	135510
#	145856
#	155767
#
# Disc length: 2247 seconds
#
# Revision: 0
# Processed by: cddbd v1.5.2PL0 Copyright (c) Steve Scherf et al.
# Submitted via: EZCDAudioConverter 1.3.4.1
#
DISCID=b408c50e
DTITLE=Damon - Song Of A Gypsy 1/2
DYEAR=1900
DGENRE=
TTITLE0=Song Of A Gypsy
TTITLE1=Poor Poor Genie
TTITLE2=Don't You Feel Me
TTITLE3=Did You Ever
TTITLE4=Funky Funky Blues
TTITLE5=Do You
TTITLE6=The Night
TTITLE7=Feel Your Love
TTITLE8=Birds Fly So High
TTITLE9=The Road Of Life
TTITLE10=Oh What A Good Boy Am I
TTITLE11=Song Of A Gypsy [45 Version]
TTITLE12=Song Of A Gypsy [Demo]
TTITLE13=Poor Poor Genie [Demo]
EXTD=
EXTT0=
EXTT1=
EXTT2=
EXTT3=
EXTT4=
EXTT5=
EXTT6=
EXTT7=
EXTT8=
EXTT9=
EXTT10=
EXTT11=
EXTT12=
EXTT13=
PLAYORDER=
